<svg width="512" height="512" viewBox="0 0 512 512" fill="none" xmlns="http://www.w3.org/2000/svg">
<path d="M395.92 75.1535C392.104 69.0818 386.53 68.9075 380.179 68.7088C379.459 68.6862 378.729 68.6634 377.991 68.6317C377.429 68.6048 376.809 68.6151 376.16 68.626C373.585 68.6689 370.571 68.7192 369.053 66.4701C367.293 63.8625 367.46 58.8232 367.598 54.6631C367.642 53.3486 367.682 52.121 367.658 51.0866C367.411 41.4226 366.895 31.1571 363.305 27.7253C360.598 25.1505 352.499 25.5072 345.03 25.8362C342.609 25.9428 340.254 26.0465 338.17 26.0465H179.19C175.989 26.0465 172.634 25.7757 169.337 25.5096C162.913 24.991 156.711 24.4904 152.307 26.0465C145.916 28.3159 145.483 40.2411 145.075 51.4703L145.053 52.0745C144.711 61.3447 142.5 68.4979 135.173 67.7774C126.651 66.9529 118.171 66.6929 114.318 74.7078C109.767 84.1908 110.705 94.1174 112.386 111.897C112.627 114.437 112.882 117.137 113.138 120.019H398.378C398.541 117.913 398.715 115.833 398.886 113.787C400.221 97.7909 401.385 83.8534 395.92 75.1535Z" fill="#8047F8"/>
<path fill-rule="evenodd" clip-rule="evenodd" d="M135.352 137.653C139.807 200.306 144.213 263.03 148.62 325.756L148.622 325.794C151.015 359.852 153.407 393.91 155.808 427.957H164.909C165.529 433.287 166.239 439.866 166.987 446.803C168.506 460.884 170.183 476.441 171.594 486H172.601C181.871 482.475 245.959 454.01 245.988 340.683C245.976 340.359 245.986 340.036 246.018 339.715H230.185C229.419 339.708 228.676 339.442 228.071 338.959C227.465 338.475 227.032 337.801 226.836 337.04C225.293 333.079 224.049 329.002 223.115 324.846C213.8 330.312 206.403 338.66 201.979 348.698C197.778 338.417 197.229 326.947 200.425 316.291C203.622 305.636 210.362 296.474 219.468 290.405C219.585 257.336 231.501 225.458 252.959 200.806L253.294 200.5C253.917 199.94 254.716 199.628 255.544 199.621C256.023 199.625 256.496 199.731 256.933 199.933C257.375 200.137 257.771 200.435 258.094 200.806C279.802 225.492 291.655 257.676 291.287 290.94C300.562 296.84 307.44 305.996 310.642 316.709C313.845 327.422 313.155 338.965 308.702 349.195C304.301 339.141 296.898 330.786 287.565 325.343C286.995 329.371 285.946 333.312 284.44 337.078C283.919 338.683 282.877 339.715 281.835 339.715H264.95C264.976 339.908 264.995 340.101 265.006 340.294L265.012 340.339V340.433C265.018 340.599 265.019 340.767 265.013 340.934C265.244 457.515 333.383 483.976 339.127 486H341.091C341.593 476.818 343.226 464.147 344.817 451.795C345.914 443.282 346.992 434.921 347.666 427.957H356.873C359.819 385.071 362.85 342.306 365.881 299.539L365.883 299.516L365.883 299.503C369.76 244.8 373.637 190.095 377.339 135.135H135.942C135.247 135.276 135.294 136.457 135.352 137.653ZM255.544 199.621L255.526 199.621H255.563L255.544 199.621Z" fill="#8047F8"/>
</svg>
